<svg width="66" height="62" viewBox="0 0 66 62" fill="none" xmlns="http://www.w3.org/2000/svg">
<path d="M12.8359 30.1049C12.8359 30.1049 19.2893 17.2227 33.0026 17.2227C46.7159 17.2227 53.1693 30.1049 53.1693 30.1049C53.1693 30.1049 46.7159 42.9871 33.0026 42.9871C19.2893 42.9871 12.8359 30.1049 12.8359 30.1049Z" stroke="#374151" stroke-width="0.861111" stroke-linecap="round" stroke-linejoin="round"/>
<path d="M33.5808 20.3027C27.9858 20.3027 23.4492 24.5644 23.4492 29.8203C23.4492 35.0762 27.9858 39.3378 33.5808 39.3378C39.1758 39.3378 43.7124 35.0762 43.7124 29.8203C43.7124 24.5644 39.1758 20.3027 33.5808 20.3027ZM34.3045 34.4091C34.3045 34.5026 34.2231 34.579 34.1236 34.579H33.038C32.9385 34.579 32.8571 34.5026 32.8571 34.4091V28.6306C32.8571 28.5371 32.9385 28.4606 33.038 28.4606H34.1236C34.2231 28.4606 34.3045 28.5371 34.3045 28.6306V34.4091ZM33.5808 27.101C33.2967 27.0955 33.0263 26.9857 32.8274 26.7951C32.6286 26.6044 32.5172 26.3481 32.5172 26.0812C32.5172 25.8143 32.6286 25.5581 32.8274 25.3674C33.0263 25.1768 33.2967 25.067 33.5808 25.0615C33.8649 25.067 34.1353 25.1768 34.3342 25.3674C34.533 25.5581 34.6444 25.8143 34.6444 26.0812C34.6444 26.3481 34.533 26.6044 34.3342 26.7951C34.1353 26.9857 33.8649 27.0955 33.5808 27.101Z" fill="#374151"/>
</svg>
