<svg width="117" height="40" viewBox="0 0 117 40" fill="none" xmlns="http://www.w3.org/2000/svg">
<path d="M0.5 1.08706H6.13504C8.08919 1.08706 9.34517 1.87105 9.48729 3.58094H0.5V1.08706ZM9.48729 3.58094H12.5198V26.0223H9.48729V3.58094ZM15.872 1.08706H21.5088V3.58094H12.5198C12.6619 1.87105 13.9108 1.08706 15.872 1.08706ZM21.5088 8.2104H24.5413V12.698H24.5768C25.3248 10.1686 26.9662 7.78293 29.6061 7.78293C29.7845 7.77941 29.9628 7.79128 30.1391 7.8184V10.9455C27.286 10.8391 25.2164 11.765 24.5395 13.0119V26.0223H21.5088V8.2104ZM32.2797 17.3984C32.2797 14.3724 33.8786 12.235 36.4545 11.1672C36.0619 12.306 35.8114 13.7303 35.7048 15.4756H45.5502C45.5768 14.0354 45.4089 12.5981 45.051 11.2027C47.618 12.3414 48.9379 14.5852 48.7603 17.6839H35.6693C35.7048 19.7858 35.918 21.7795 36.5575 23.3475C33.6352 22.4198 32.2797 20.3907 32.2797 17.3984ZM40.6684 10.4134C39.2301 10.3875 37.8006 10.6417 36.4598 11.1619C37.2806 8.88264 38.7071 7.77761 40.846 7.77761C42.9512 7.77761 44.3422 8.91812 45.0563 11.1974C43.6589 10.6526 42.1682 10.3862 40.6684 10.4134ZM36.5664 23.3422C37.7442 23.7324 39.2063 23.9115 40.9544 23.9115C42.3496 23.9295 43.7409 23.7618 45.0918 23.4131C44.3422 25.4068 42.8446 26.4391 40.8815 26.4391C38.6662 26.4444 37.3108 25.2347 36.5611 23.3475L36.5664 23.3422ZM45.6266 20.1725H48.8722C48.4441 21.8806 46.9465 22.8774 45.0918 23.4131C45.4374 22.3691 45.6161 21.2773 45.6212 20.1778L45.6266 20.1725ZM51.5831 17.393C51.5831 14.367 53.182 12.2297 55.7561 11.1619C55.3635 12.3006 55.1131 13.725 55.0065 15.4703H64.8518C64.8785 14.0301 64.7105 12.5928 64.3526 11.1974C66.9196 12.3361 68.2396 14.5799 68.0619 17.6786H54.9656C55.0011 19.7805 55.2161 21.7742 55.8538 23.3422C52.9262 22.4198 51.5778 20.3907 51.5778 17.3984L51.5831 17.393ZM59.9593 10.4134C58.5211 10.3876 57.0917 10.6419 55.7508 11.1619C56.5716 8.88264 57.9981 7.77761 60.137 7.77761C62.2421 7.77761 63.6331 8.91812 64.3473 11.1974C62.9499 10.6526 61.4592 10.3862 59.9593 10.4134ZM55.8574 23.3475C57.0352 23.7377 58.4973 23.9169 60.2453 23.9169C61.6405 23.9348 63.0319 23.7672 64.3828 23.4184C63.6331 25.4121 62.1355 26.4444 60.1743 26.4444C57.9625 26.4444 56.6071 25.2347 55.8574 23.3475ZM64.9175 20.1778H68.1632C67.7351 21.8859 66.2375 22.8828 64.3828 23.4184C64.7308 22.3731 64.9112 21.2794 64.9175 20.1778ZM70.8741 20.1406H74.1553C74.1257 20.4844 74.1139 20.8296 74.1198 21.1747C74.107 22.0046 74.2147 22.8321 74.4395 23.6313C72.2651 23.0264 70.9097 21.815 70.8688 20.1406H70.8741ZM82.6452 22.7763C82.6452 20.8891 81.7569 19.7131 79.0069 18.6808L75.7968 17.4693C72.8709 16.3661 71.7304 15.4047 71.7304 13.6948C71.7304 12.306 72.5849 11.2736 74.2619 10.7043C74.2207 10.9274 74.1969 11.1533 74.1908 11.3801C74.1908 13.3028 74.9761 14.0158 77.687 15.0482L80.7177 16.1887C83.6436 17.2919 84.9991 18.5034 84.9991 20.3907C84.9991 21.8859 84.1108 22.8739 82.5724 23.4539C82.6142 23.2303 82.6385 23.0037 82.6452 22.7763ZM77.9748 7.78293C80.0444 7.78293 81.1849 8.81525 81.6841 10.5961C80.7212 10.3123 79.5097 10.1686 78.0103 10.1686C76.4766 10.1686 75.2283 10.346 74.2655 10.7007C74.5124 9.20724 75.6884 7.78293 77.9748 7.78293ZM74.4431 23.6313C75.6548 23.9457 76.9023 24.1013 78.1542 24.0942C79.9005 24.0942 81.4354 23.8814 82.5759 23.4539C82.2917 24.9847 80.9362 26.4444 78.4029 26.4444C76.3315 26.4444 75.0116 25.4476 74.4395 23.6313H74.4431ZM81.6805 10.5908C83.9989 11.1974 84.999 12.4425 85.2122 13.8686H81.9666C82.0478 12.7678 81.9512 11.661 81.6805 10.5908ZM92.9489 7.93015C93.5191 5.86552 94.8391 4.47668 96.7648 3.90731L93.7696 15.912H103.864L100.831 3.91086C102.757 4.48023 104.077 5.86197 104.649 7.9337L109.605 26.0258H106.399L104.473 18.3988H93.1301L91.2399 26.0258H88.0297L92.9489 7.93015ZM97.1609 2.26305C97.4114 1.30169 97.8378 0.666687 98.8024 0.666687C99.7671 0.666687 100.193 1.30878 100.442 2.26305L100.835 3.90198C99.5061 3.52118 98.097 3.52118 96.7683 3.90198L97.1609 2.26305ZM113.505 1.08706H116.5V26.0223H113.505V1.08706Z" fill="#47B881"/>
<path d="M14.6956 32.6089C14.6231 32.387 14.5275 32.1882 14.4088 32.0124C14.2924 31.8345 14.1529 31.6829 13.9903 31.5577C13.8299 31.4324 13.6476 31.3369 13.4433 31.271C13.239 31.205 13.0149 31.1721 12.771 31.1721C12.3712 31.1721 12.0076 31.2753 11.6802 31.4819C11.3529 31.6884 11.0925 31.9927 10.8992 32.3947C10.7059 32.7967 10.6092 33.29 10.6092 33.8744C10.6092 34.4588 10.707 34.952 10.9025 35.354C11.098 35.7561 11.3628 36.0603 11.6967 36.2669C12.0306 36.4734 12.4063 36.5766 12.8237 36.5766C13.2104 36.5766 13.5509 36.4942 13.8453 36.3295C14.1419 36.1625 14.3726 35.9274 14.5374 35.6242C14.7043 35.3189 14.7878 34.9597 14.7878 34.5466L15.0383 34.5994H13.0083V33.8744H15.5787V34.5994C15.5787 35.1552 15.4601 35.6385 15.2228 36.0494C14.9877 36.4602 14.6626 36.7788 14.2474 37.005C13.8343 37.2291 13.3598 37.3412 12.8237 37.3412C12.2262 37.3412 11.7011 37.2006 11.2485 36.9194C10.7981 36.6381 10.4466 36.2383 10.194 35.7198C9.94351 35.2013 9.81828 34.5862 9.81828 33.8744C9.81828 33.3405 9.88969 32.8605 10.0325 32.4342C10.1775 32.0058 10.3818 31.6411 10.6454 31.3402C10.9091 31.0392 11.221 30.8085 11.5814 30.6481C11.9417 30.4877 12.3382 30.4075 12.771 30.4075C13.1269 30.4075 13.4587 30.4614 13.7662 30.569C14.076 30.6745 14.3517 30.825 14.5934 31.0205C14.8373 31.2138 15.0405 31.4456 15.2031 31.7158C15.3656 31.9839 15.4777 32.2816 15.5392 32.6089H14.6956ZM16.9785 37.2489V30.4998H17.7957V36.5239H20.933V37.2489H16.9785ZM28.6312 33.993V34.718H23.9912V33.993H28.6312ZM32.8757 30.4998V37.2489H32.0585V30.4998H32.8757ZM34.5144 30.4998H35.4898L37.7835 36.1021H37.8626L40.1562 30.4998H41.1317V37.2489H40.3671V32.1212H40.3012L38.1921 37.2489H37.4539L35.3448 32.1212H35.2789V37.2489H34.5144V30.4998ZM42.7703 37.2489V30.4998H45.0508C45.5802 30.4998 46.013 30.5954 46.3492 30.7865C46.6875 30.9755 46.938 31.2314 47.1005 31.5544C47.2631 31.8773 47.3444 32.2376 47.3444 32.6353C47.3444 33.0329 47.2631 33.3943 47.1005 33.7195C46.9402 34.0446 46.6919 34.3039 46.3558 34.4972C46.0196 34.6883 45.589 34.7839 45.064 34.7839H43.4294V34.0589H45.0376C45.4001 34.0589 45.6912 33.9963 45.9109 33.8711C46.1306 33.7458 46.2899 33.5767 46.3887 33.3636C46.4898 33.1483 46.5403 32.9055 46.5403 32.6353C46.5403 32.365 46.4898 32.1234 46.3887 31.9103C46.2899 31.6972 46.1295 31.5302 45.9076 31.4094C45.6857 31.2863 45.3913 31.2248 45.0244 31.2248H43.5876V37.2489H42.7703ZM48.249 37.2489H47.3922L49.8704 30.4998H50.714L53.1922 37.2489H52.3354L50.3186 31.5675H50.2658L48.249 37.2489ZM48.5654 34.6125H52.019V35.3375H48.5654V34.6125ZM59.3571 32.6089H58.5399C58.4915 32.3738 58.407 32.1673 58.2861 31.9894C58.1675 31.8114 58.0225 31.662 57.8511 31.5412C57.682 31.4182 57.4941 31.3259 57.2876 31.2644C57.0811 31.2028 56.8658 31.1721 56.6417 31.1721C56.2331 31.1721 55.8629 31.2753 55.5311 31.4819C55.2016 31.6884 54.939 31.9927 54.7435 32.3947C54.5502 32.7967 54.4535 33.29 54.4535 33.8744C54.4535 34.4588 54.5502 34.952 54.7435 35.354C54.939 35.7561 55.2016 36.0603 55.5311 36.2669C55.8629 36.4734 56.2331 36.5766 56.6417 36.5766C56.8658 36.5766 57.0811 36.5459 57.2876 36.4844C57.4941 36.4228 57.682 36.3317 57.8511 36.2108C58.0225 36.0878 58.1675 35.9373 58.2861 35.7594C58.407 35.5792 58.4915 35.3727 58.5399 35.1398H59.3571C59.2956 35.4847 59.1836 35.7934 59.021 36.0658C58.8584 36.3383 58.6563 36.57 58.4147 36.7612C58.173 36.9501 57.9017 37.094 57.6007 37.1929C57.3019 37.2917 56.9822 37.3412 56.6417 37.3412C56.0661 37.3412 55.5542 37.2006 55.106 36.9194C54.6578 36.6381 54.3052 36.2383 54.0482 35.7198C53.7911 35.2013 53.6626 34.5862 53.6626 33.8744C53.6626 33.1625 53.7911 32.5474 54.0482 32.0289C54.3052 31.5104 54.6578 31.1106 55.106 30.8294C55.5542 30.5482 56.0661 30.4075 56.6417 30.4075C56.9822 30.4075 57.3019 30.457 57.6007 30.5558C57.9017 30.6547 58.173 30.7997 58.4147 30.9908C58.6563 31.1798 58.8584 31.4105 59.021 31.6829C59.1836 31.9531 59.2956 32.2618 59.3571 32.6089ZM60.3087 31.2248V30.4998H65.3705V31.2248H63.2483V37.2489H62.431V31.2248H60.3087ZM69.2419 37.2489V30.4998H71.5223C72.0518 30.4998 72.4846 30.5954 72.8207 30.7865C73.159 30.9755 73.4095 31.2314 73.5721 31.5544C73.7346 31.8773 73.8159 32.2376 73.8159 32.6353C73.8159 33.0329 73.7346 33.3943 73.5721 33.7195C73.4117 34.0446 73.1634 34.3039 72.8273 34.4972C72.4912 34.6883 72.0606 34.7839 71.5355 34.7839H69.9009V34.0589H71.5091C71.8716 34.0589 72.1627 33.9963 72.3824 33.8711C72.6021 33.7458 72.7614 33.5767 72.8603 33.3636C72.9613 33.1483 73.0118 32.9055 73.0118 32.6353C73.0118 32.365 72.9613 32.1234 72.8603 31.9103C72.7614 31.6972 72.601 31.5302 72.3791 31.4094C72.1572 31.2863 71.8628 31.2248 71.4959 31.2248H70.0591V37.2489H69.2419ZM75.1325 37.2489V30.4998H75.9497V36.5239H79.087V37.2489H75.1325ZM81.0552 37.2489H80.1984L82.6766 30.4998H83.5202L85.9984 37.2489H85.1416L83.1248 31.5675H83.072L81.0552 37.2489ZM81.3716 34.6125H84.8252V35.3375H81.3716V34.6125ZM92.4015 30.4998V37.2489H91.6106L87.9328 31.9498H87.8669V37.2489H87.0496V30.4998H87.8406L91.5315 35.8121H91.5974V30.4998H92.4015ZM99.3886 30.4998V37.2489H98.5977L94.92 31.9498H94.8541V37.2489H94.0368V30.4998H94.8277L98.5186 35.8121H98.5845V30.4998H99.3886ZM101.024 37.2489V30.4998H105.097V31.2248H101.841V33.5053H104.886V34.2303H101.841V36.5239H105.15V37.2489H101.024ZM106.57 37.2489V30.4998H108.851C109.378 30.4998 109.811 30.5899 110.149 30.77C110.487 30.948 110.738 31.193 110.9 31.5049C111.063 31.8169 111.144 32.1717 111.144 32.5694C111.144 32.967 111.063 33.3196 110.9 33.6272C110.738 33.9348 110.489 34.1764 110.152 34.3522C109.816 34.5258 109.387 34.6125 108.864 34.6125H107.018V33.8744H108.838C109.198 33.8744 109.488 33.8216 109.708 33.7162C109.929 33.6107 110.09 33.4613 110.189 33.268C110.29 33.0725 110.34 32.8396 110.34 32.5694C110.34 32.2991 110.29 32.063 110.189 31.8608C110.088 31.6587 109.926 31.5027 109.704 31.3929C109.482 31.2808 109.189 31.2248 108.824 31.2248H107.388V37.2489H106.57ZM109.747 34.2171L111.408 37.2489H110.459L108.824 34.2171H109.747Z" fill="#47B881"/>
</svg>
