<svg width="119" height="27" viewBox="0 0 119 27" fill="none" xmlns="http://www.w3.org/2000/svg">
<path d="M0 0.429435H5.75649C7.75275 0.429435 9.03581 1.23032 9.18099 2.97706H0V0.429435ZM9.18099 2.97706H12.2788V25.9021H9.18099V2.97706ZM15.7033 0.429435H21.4616V2.97706H12.2788C12.424 1.23032 13.6998 0.429435 15.7033 0.429435ZM21.4616 7.7063H24.5595V12.2906H24.5958C25.3598 9.70671 27.0367 7.26961 29.7334 7.26961C29.9156 7.26602 30.0978 7.27815 30.2779 7.30586V10.5004C27.3633 10.3916 25.2491 11.3375 24.5577 12.6113V25.9021H21.4616V7.7063ZM32.4647 17.0923C32.4647 14.0011 34.098 11.8177 36.7294 10.7269C36.3284 11.8901 36.0725 13.3451 35.9636 15.1281H46.0211C46.0483 13.6568 45.8768 12.1886 45.5112 10.7631C48.1335 11.9264 49.4819 14.2185 49.3004 17.384H35.9273C35.9636 19.5312 36.1814 21.5679 36.8347 23.1696C33.8494 22.222 32.4647 20.1491 32.4647 17.0923ZM41.0341 9.95677C39.5649 9.93027 38.1046 10.19 36.7349 10.7214C37.5733 8.39303 39.0306 7.26418 41.2156 7.26418C43.3661 7.26418 44.7871 8.42927 45.5166 10.7577C44.0891 10.2011 42.5663 9.92902 41.0341 9.95677ZM36.8438 23.1642C38.047 23.5628 39.5405 23.7458 41.3263 23.7458C42.7515 23.7642 44.1729 23.5929 45.5529 23.2367C44.7871 25.2733 43.2572 26.3279 41.2519 26.3279C38.9888 26.3333 37.6042 25.0976 36.8383 23.1696L36.8438 23.1642ZM46.0992 19.9262H49.4148C48.9774 21.6711 47.4475 22.6895 45.5529 23.2367C45.906 22.1702 46.0885 21.0548 46.0937 19.9316L46.0992 19.9262ZM52.1841 17.0869C52.1841 13.9956 53.8174 11.8122 56.4471 10.7214C56.046 11.8847 55.7901 13.3397 55.6812 15.1227H65.7388C65.766 13.6514 65.5945 12.1832 65.2288 10.7577C67.8512 11.9209 69.1996 14.2131 69.0181 17.3786H55.6395C55.6758 19.5258 55.8954 21.5624 56.5469 23.1642C53.5561 22.222 52.1787 20.1491 52.1787 17.0923L52.1841 17.0869ZM60.7408 9.95677C59.2716 9.93046 57.8114 10.1902 56.4416 10.7214C57.2801 8.39303 58.7373 7.26418 60.9223 7.26418C63.0728 7.26418 64.4938 8.42927 65.2234 10.7577C63.7959 10.2011 62.2731 9.92902 60.7408 9.95677ZM56.5505 23.1696C57.7537 23.5683 59.2473 23.7513 61.033 23.7513C62.4583 23.7696 63.8797 23.5984 65.2597 23.2421C64.4938 25.2788 62.9639 26.3333 60.9604 26.3333C58.701 26.3333 57.3163 25.0976 56.5505 23.1696ZM65.8059 19.9316H69.1215C68.6842 21.6766 67.1543 22.6949 65.2597 23.2421C65.6151 22.1742 65.7995 21.057 65.8059 19.9316ZM71.8909 19.8936H75.2428C75.2126 20.2449 75.2005 20.5975 75.2065 20.95C75.1934 21.7979 75.3035 22.6432 75.5331 23.4596C73.3119 22.8417 71.9272 21.6041 71.8854 19.8936H71.8909ZM83.9156 22.5862C83.9156 20.6582 83.0083 19.4569 80.199 18.4023L76.9196 17.1648C73.9307 16.0377 72.7656 15.0556 72.7656 13.3089C72.7656 11.8901 73.6385 10.8356 75.3517 10.2539C75.3096 10.4818 75.2853 10.7126 75.2791 10.9443C75.2791 12.9085 76.0812 13.6369 78.8506 14.6914L81.9466 15.8565C84.9355 16.9836 86.3202 18.2211 86.3202 20.1491C86.3202 21.6766 85.4128 22.6858 83.8412 23.2784C83.8839 23.0499 83.9088 22.8185 83.9156 22.5862ZM79.1446 7.26961C81.2588 7.26961 82.4239 8.32419 82.9338 10.1434C81.9502 9.85349 80.7125 9.70671 79.1809 9.70671C77.6141 9.70671 76.3389 9.88791 75.3553 10.2503C75.6076 8.72463 76.8089 7.26961 79.1446 7.26961ZM75.5368 23.4596C76.7746 23.7807 78.049 23.9397 79.3279 23.9325C81.1118 23.9325 82.6798 23.715 83.8449 23.2784C83.5545 24.8421 82.1698 26.3333 79.5819 26.3333C77.4659 26.3333 76.1175 25.315 75.5331 23.4596H75.5368ZM82.9302 10.138C85.2985 10.7577 86.3202 12.0297 86.538 13.4865H83.2224C83.3054 12.3619 83.2067 11.2313 82.9302 10.138ZM94.4414 7.42001C95.0239 5.31088 96.3723 3.89211 98.3396 3.31047L95.2798 15.5739H105.591L102.494 3.3141C104.461 3.89574 105.809 5.30726 106.394 7.42364L111.457 25.9057H108.181L106.214 18.1142H94.6265L92.6956 25.9057H89.4163L94.4414 7.42001ZM98.7442 1.63077C99.0001 0.648685 99.4357 0 100.421 0C101.407 0 101.842 0.655932 102.096 1.63077L102.497 3.30503C101.14 2.91601 99.7005 2.91601 98.3432 3.30503L98.7442 1.63077ZM115.44 0.429435H118.5V25.9021H115.44V0.429435Z" fill="#FCFCFC"/>
</svg>
