<svg width="127" height="29" viewBox="0 0 127 29" fill="none" xmlns="http://www.w3.org/2000/svg">
<path d="M0.167969 0.659756H6.28901C8.41169 0.659756 9.776 1.51136 9.93038 3.36872H0.167969V0.659756ZM9.93038 3.36872H13.2244V27.7455H9.93038V3.36872ZM16.8658 0.659756H22.9887V3.36872H13.2244C13.3788 1.51136 14.7354 0.659756 16.8658 0.659756ZM22.9887 8.39746H26.2828V13.272H26.3214C27.1338 10.5246 28.9168 7.93311 31.7844 7.93311C31.9781 7.92929 32.1718 7.94219 32.3633 7.97165V11.3685C29.2642 11.2528 27.0161 12.2586 26.2808 13.6131V27.7455H22.9887V8.39746ZM34.6886 18.3778C34.6886 15.0909 36.4253 12.7692 39.2234 11.6093C38.7969 12.8462 38.5249 14.3934 38.4091 16.2893H49.1035C49.1325 14.7248 48.9501 13.1636 48.5613 11.6478C51.3497 12.8848 52.7835 15.3221 52.5905 18.688H38.3705C38.4091 20.9712 38.6406 23.1368 39.3353 24.8401C36.1609 23.8324 34.6886 21.6282 34.6886 18.3778ZM43.8007 10.7904C42.2384 10.7623 40.6856 11.0384 39.2292 11.6035C40.1207 9.12767 41.6703 7.92734 43.9937 7.92734C46.2804 7.92734 47.7913 9.16621 48.5671 11.642C47.0492 11.0502 45.4299 10.7609 43.8007 10.7904ZM39.345 24.8343C40.6244 25.2582 42.2125 25.4527 44.1114 25.4527C45.6269 25.4722 47.1383 25.2902 48.6057 24.9113C47.7913 27.077 46.1646 28.1983 44.0323 28.1983C41.6259 28.2041 40.1535 26.8901 39.3392 24.8401L39.345 24.8343ZM49.1865 21.3912H52.7121C52.247 23.2467 50.6203 24.3295 48.6057 24.9113C48.9811 23.7773 49.1751 22.5913 49.1807 21.397L49.1865 21.3912ZM55.6568 18.3721C55.6568 15.0851 57.3936 12.7634 60.1897 11.6035C59.7633 12.8405 59.4912 14.3876 59.3754 16.2835H70.0699C70.0988 14.7191 69.9164 13.1578 69.5276 11.642C72.316 12.879 73.7498 15.3163 73.5568 18.6823H59.331C59.3696 20.9654 59.6031 23.1311 60.2959 24.8343C57.1157 23.8324 55.651 21.6282 55.651 18.3778L55.6568 18.3721ZM64.7554 10.7904C63.1932 10.7625 61.6404 11.0386 60.1839 11.6035C61.0755 9.12767 62.625 7.92734 64.9484 7.92734C67.2351 7.92734 68.7461 9.16621 69.5218 11.642C68.0039 11.0502 66.3847 10.7609 64.7554 10.7904ZM60.2997 24.8401C61.5791 25.2639 63.1673 25.4585 65.0661 25.4585C66.5816 25.478 68.093 25.2959 69.5604 24.9171C68.7461 27.0828 67.1193 28.2041 64.9889 28.2041C62.5864 28.2041 61.1141 26.8901 60.2997 24.8401ZM70.1413 21.397H73.6668C73.2018 23.2524 71.575 24.3353 69.5604 24.9171C69.9384 23.7816 70.1344 22.5936 70.1413 21.397ZM76.6116 21.3566H80.1758C80.1436 21.7301 80.1308 22.105 80.1372 22.4798C80.1233 23.3814 80.2403 24.2802 80.4845 25.1483C78.1225 24.4913 76.6502 23.1754 76.6058 21.3566H76.6116ZM89.3979 24.2197C89.3979 22.1696 88.433 20.8922 85.4458 19.7709L81.9588 18.4549C78.7806 17.2565 77.5417 16.2122 77.5417 14.3549C77.5417 12.8462 78.4699 11.7249 80.2915 11.1064C80.2468 11.3487 80.2209 11.5942 80.2143 11.8405C80.2143 13.9291 81.0673 14.7036 84.012 15.8249L87.3041 17.0638C90.4823 18.2622 91.9547 19.5782 91.9547 21.6282C91.9547 23.2524 90.9899 24.3256 89.3187 24.9557C89.3642 24.7127 89.3906 24.4667 89.3979 24.2197ZM84.3246 7.93311C86.5728 7.93311 87.8116 9.05447 88.3539 10.9889C87.308 10.6806 85.9919 10.5245 84.3632 10.5245C82.6972 10.5245 81.3413 10.7172 80.2954 11.1026C80.5636 9.48027 81.8411 7.93311 84.3246 7.93311ZM80.4884 25.1483C81.8046 25.4899 83.1597 25.6589 84.5195 25.6512C86.4165 25.6512 88.0837 25.42 89.3226 24.9557C89.0138 26.6184 87.5415 28.2041 84.7897 28.2041C82.5397 28.2041 81.1059 27.1213 80.4845 25.1483H80.4884ZM88.35 10.9831C90.8683 11.642 91.9547 12.9946 92.1863 14.5437H88.6607C88.749 13.3479 88.6441 12.1457 88.35 10.9831ZM100.59 8.09303C101.21 5.85033 102.643 4.34172 104.735 3.72324L101.482 16.7633H112.446L109.152 3.7271C111.244 4.34557 112.678 5.84648 113.299 8.09689L118.683 27.7494H115.2L113.108 19.4645H100.787L98.7338 27.7494H95.2468L100.59 8.09303ZM105.166 1.93717C105.438 0.89289 105.901 0.203125 106.949 0.203125C107.996 0.203125 108.46 0.900596 108.73 1.93717L109.156 3.71745C107.713 3.30381 106.182 3.30381 104.739 3.71745L105.166 1.93717ZM122.919 0.659756H126.172V27.7455H122.919V0.659756Z" fill="#2F3130"/>
</svg>
