<svg width="737" height="462" viewBox="0 0 737 462" fill="none" xmlns="http://www.w3.org/2000/svg">
<mask id="path-1-inside-1_2512_37510" fill="white">
<path fill-rule="evenodd" clip-rule="evenodd" d="M597 462C674.32 462 737 399.32 737 322L737 76.6871L646.166 76.6871L646.166 0.000117525L140 4.27568e-05C62.6801 5.47967e-06 1.42638e-05 62.6801 7.50429e-06 140L-1.41052e-05 387.183L88.7698 387.183L88.7698 462L597 462Z"/>
</mask>
<path fill-rule="evenodd" clip-rule="evenodd" d="M597 462C674.32 462 737 399.32 737 322L737 76.6871L646.166 76.6871L646.166 0.000117525L140 4.27568e-05C62.6801 5.47967e-06 1.42638e-05 62.6801 7.50429e-06 140L-1.41052e-05 387.183L88.7698 387.183L88.7698 462L597 462Z" fill="url(#paint0_linear_2512_37510)"/>
<path d="M737 322L738 322L737 322ZM597 462L597 463L597 462ZM737 76.6871L738 76.6871L738 75.6871L737 75.6871L737 76.6871ZM646.166 76.6871L645.166 76.6871L645.166 77.6871L646.166 77.6871L646.166 76.6871ZM646.166 0.000117525L647.166 0.000117612L647.166 -0.999882L646.166 -0.999882L646.166 0.000117525ZM140 4.27568e-05L140 1.00004L140 4.27568e-05ZM7.50429e-06 140L-0.999992 140L7.50429e-06 140ZM-1.41052e-05 387.183L-1.00001 387.183L-1.00001 388.183L-1.41926e-05 388.183L-1.41052e-05 387.183ZM88.7698 387.183L89.7698 387.183L89.7698 386.183L88.7698 386.183L88.7698 387.183ZM88.7698 462L87.7698 462L87.7698 463L88.7698 463L88.7698 462ZM736 322C736 398.767 673.768 461 597 461L597 463C674.872 463 738 399.872 738 322L736 322ZM736 76.6871L736 322L738 322L738 76.6871L736 76.6871ZM646.166 77.6871L737 77.6871L737 75.6871L646.166 75.6871L646.166 77.6871ZM645.166 0.000117437L645.166 76.6871L647.166 76.6871L647.166 0.000117612L645.166 0.000117437ZM140 1.00004L646.166 1.00012L646.166 -0.999882L140 -0.999957L140 1.00004ZM1.00001 140C1.00001 63.2323 63.2324 1.00001 140 1.00004L140 -0.999957C62.1279 -0.999995 -0.999986 62.1278 -0.999992 140L1.00001 140ZM0.999986 387.183L1.00001 140L-0.999992 140L-1.00001 387.183L0.999986 387.183ZM88.7698 386.183L-1.40177e-05 386.183L-1.41926e-05 388.183L88.7698 388.183L88.7698 386.183ZM89.7698 462L89.7698 387.183L87.7698 387.183L87.7698 462L89.7698 462ZM597 461L88.7698 461L88.7698 463L597 463L597 461Z" fill="white" mask="url(#path-1-inside-1_2512_37510)"/>
<defs>
<linearGradient id="paint0_linear_2512_37510" x1="933.853" y1="509.706" x2="344.034" y2="-229.585" gradientUnits="userSpaceOnUse">
<stop stop-color="#4F46E5"/>
<stop offset="0.398018" stop-color="#1EB792"/>
</linearGradient>
</defs>
</svg>
