<svg width="707" height="327" viewBox="0 0 707 327" fill="none" xmlns="http://www.w3.org/2000/svg">
<path d="M0.125 215.62H14.3315C19.2581 215.62 22.4246 217.562 22.7829 221.799H0.125V215.62ZM22.7829 221.799H30.428V277.405H22.7829V221.799ZM38.8794 215.62H53.0904V221.799H30.428C30.7863 217.562 33.9349 215.62 38.8794 215.62ZM53.0904 233.27H60.7356V244.39H60.8251C62.7107 238.122 66.849 232.211 73.5044 232.211C73.954 232.202 74.4036 232.232 74.848 232.299V240.047C67.6552 239.784 62.4375 242.078 60.7311 245.168V277.405H53.0904V233.27ZM80.2449 256.036C80.2449 248.539 84.2758 243.243 90.7699 240.597C89.7801 243.418 89.1486 246.948 88.8799 251.272H113.701C113.768 247.704 113.345 244.142 112.442 240.685C118.914 243.506 122.242 249.066 121.794 256.744H88.7903C88.8799 261.952 89.4173 266.892 91.0297 270.777C83.6622 268.479 80.2449 263.451 80.2449 256.036ZM101.393 238.729C97.7675 238.665 94.1636 239.295 90.7833 240.584C92.8525 234.936 96.4489 232.198 101.841 232.198C107.149 232.198 110.655 235.024 112.456 240.671C108.933 239.321 105.175 238.662 101.393 238.729ZM91.0521 270.764C94.0214 271.731 97.7074 272.175 102.115 272.175C105.632 272.219 109.14 271.804 112.545 270.94C110.655 275.88 106.88 278.438 101.931 278.438C96.3459 278.451 92.9287 275.454 91.0386 270.777L91.0521 270.764ZM113.894 262.91H122.076C120.997 267.143 117.221 269.613 112.545 270.94C113.417 268.353 113.867 265.648 113.88 262.923L113.894 262.91ZM128.911 256.023C128.911 248.525 132.942 243.229 139.431 240.584C138.441 243.405 137.81 246.934 137.541 251.259H162.362C162.43 247.69 162.006 244.129 161.104 240.671C167.576 243.493 170.903 249.053 170.455 256.731H137.438C137.528 261.939 138.07 266.879 139.678 270.764C132.297 268.479 128.897 263.451 128.897 256.036L128.911 256.023ZM150.028 238.729C146.402 238.665 142.798 239.295 139.418 240.584C141.487 234.936 145.083 232.198 150.476 232.198C155.783 232.198 159.29 235.024 161.09 240.671C157.567 239.321 153.809 238.662 150.028 238.729ZM139.687 270.777C142.656 271.744 146.342 272.188 150.749 272.188C154.266 272.233 157.774 271.817 161.18 270.953C159.29 275.893 155.514 278.451 150.57 278.451C144.994 278.451 141.577 275.454 139.687 270.777ZM162.528 262.923H170.711C169.631 267.156 165.856 269.626 161.18 270.953C162.057 268.363 162.512 265.653 162.528 262.923ZM177.545 262.831H185.817C185.743 263.683 185.713 264.538 185.728 265.393C185.696 267.45 185.967 269.5 186.534 271.481C181.052 269.982 177.635 266.98 177.532 262.831H177.545ZM207.221 269.362C207.221 264.686 204.982 261.772 198.049 259.214L189.956 256.212C182.579 253.479 179.704 251.096 179.704 246.86C179.704 243.418 181.858 240.86 186.086 239.45C185.982 240.002 185.922 240.562 185.907 241.124C185.907 245.888 187.887 247.655 194.721 250.213L202.362 253.039C209.738 255.773 213.156 258.775 213.156 263.451C213.156 267.156 210.916 269.604 207.038 271.041C207.143 270.487 207.204 269.926 207.221 269.362ZM195.447 232.211C200.664 232.211 203.54 234.769 204.798 239.182C202.371 238.478 199.316 238.122 195.536 238.122C191.67 238.122 188.523 238.562 186.095 239.441C186.718 235.74 189.683 232.211 195.447 232.211ZM186.543 271.481C189.598 272.26 192.743 272.645 195.899 272.628C200.302 272.628 204.171 272.1 207.047 271.041C206.33 274.834 202.913 278.451 196.526 278.451C191.304 278.451 187.976 275.981 186.534 271.481H186.543ZM204.789 239.168C210.634 240.671 213.156 243.757 213.693 247.29H205.51C205.715 244.563 205.472 241.82 204.789 239.168ZM233.198 232.576C234.636 227.46 237.963 224.019 242.818 222.608L235.267 252.353H260.715L253.07 222.617C257.925 224.027 261.253 227.451 262.695 232.585L275.19 277.414H267.106L262.251 258.515H233.655L228.889 277.414H220.796L233.198 232.576ZM243.817 218.534C244.448 216.152 245.523 214.578 247.955 214.578C250.387 214.578 251.462 216.169 252.089 218.534L253.079 222.595C249.729 221.651 246.177 221.651 242.827 222.595L243.817 218.534ZM285.021 215.62H292.572V277.405H285.021V215.62Z" fill="white"/>
<path d="M172.445 125.836L123.907 125.836C107.075 125.836 96.2563 119.094 95.0322 104.39L172.445 104.39L172.445 125.836Z" fill="white"/>
<path d="M95.0312 83.4688H143.569C160.402 83.4688 171.22 90.0461 172.444 104.391H95.0312V83.4688Z" fill="white"/>
<path d="M172.445 47.375L123.907 47.375C107.075 47.375 96.2563 40.6332 95.0322 25.9295L172.445 25.9295L172.445 47.375Z" fill="white"/>
<path d="M95.0312 5.00781L143.569 5.00781C160.402 5.00781 171.22 11.5851 172.444 25.9303L95.0312 25.9303V5.00781Z" fill="white"/>
<path d="M168.26 89.2188L216.798 89.2187C233.63 89.2187 244.449 82.477 245.673 67.7732L168.26 67.7732L168.26 89.2188Z" fill="white"/>
<path d="M245.673 46.8516H197.135C180.302 46.8516 169.484 53.4289 168.26 67.774H245.673V46.8516Z" fill="white"/>
<path d="M341.876 89.0469L402.238 89.0469C423.171 89.0469 436.625 80.6628 438.147 62.3771L341.876 62.3771L341.876 89.0469Z" fill="white"/>
<path d="M438.146 36.3594H377.784C356.851 36.3594 343.397 44.539 341.875 62.3787H438.146V36.3594Z" fill="white"/>
<path d="M298.944 5.78906H304.799V117.022H298.944V5.78906Z" fill="white"/>
<path d="M477.826 5.78906H483.681V117.022H477.826V5.78906Z" fill="white"/>
<path d="M477.826 0.585938L477.826 5.78981L304.798 5.7898L304.798 0.58593L477.826 0.585938Z" fill="white"/>
<path d="M470.672 12.2969L470.672 17.5007L430.992 17.5007L430.992 12.2969L470.672 12.2969Z" fill="white"/>
<path d="M319.108 12.2969L319.108 17.5007L313.905 17.5007L313.905 12.2969L319.108 12.2969Z" fill="white"/>
<path d="M326.915 12.2969L326.915 17.5007L321.711 17.5007L321.711 12.2969L326.915 12.2969Z" fill="white"/>
<path d="M334.721 12.2969L334.721 17.5007L329.517 17.5007L329.517 12.2969L334.721 12.2969Z" fill="white"/>
<path d="M477.826 117.023L477.826 122.227L304.798 122.227L304.798 117.023L477.826 117.023Z" fill="white"/>
<path d="M502.768 125.93L502.768 131.498L280.817 131.498L280.817 125.93L502.768 125.93Z" fill="white"/>
<path d="M584.706 143.43L584.706 148.203L178.194 148.203L178.194 143.43L584.706 143.43Z" fill="white"/>
<path d="M16.7031 143.43L16.7031 148.203L173.421 148.203L173.421 143.43L16.7031 143.43Z" fill="white"/>
<path d="M178.194 125.93L173.421 125.93L173.421 143.431L178.194 143.431L178.194 125.93Z" fill="white"/>
<path d="M304.922 278V270.605H312.317V278H304.922ZM321.927 278V234.862H340.415C343.044 234.862 345.386 235.376 347.44 236.403C349.494 237.389 351.096 238.786 352.247 240.594C353.397 242.36 353.972 244.353 353.972 246.571C353.972 248.666 353.541 250.495 352.678 252.056C351.856 253.617 350.829 254.85 349.597 255.753C348.364 256.657 347.173 257.232 346.023 257.479C347.173 257.479 348.036 257.684 348.611 258.095C349.227 258.465 349.7 259.019 350.028 259.759C350.398 260.498 350.85 261.71 351.384 263.395L351.446 263.518L356.129 278H349.658L345.406 265.244C344.954 263.847 344.564 262.861 344.235 262.286C343.948 261.71 343.517 261.32 342.941 261.115C342.407 260.868 341.565 260.745 340.415 260.745H328.09V278H321.927ZM339.49 255.199C341.175 255.199 342.654 254.87 343.927 254.213C345.201 253.514 346.166 252.59 346.824 251.44C347.481 250.248 347.81 248.934 347.81 247.496C347.81 245.195 347.07 243.449 345.591 242.257C344.153 241.025 342.12 240.409 339.49 240.409H328.09V255.199H339.49ZM363.693 278V234.862H395.121V240.409H369.855V253.042H391.424V258.588H369.855V272.454H395.738V278H363.693ZM420.799 278.616C416.773 278.616 413.219 277.671 410.138 275.781C407.056 273.892 404.674 271.262 402.989 267.893C401.305 264.525 400.463 260.704 400.463 256.431C400.463 252.117 401.305 248.297 402.989 244.969C404.715 241.6 407.159 238.971 410.323 237.081C413.486 235.191 417.183 234.246 421.415 234.246C424.989 234.246 428.05 234.883 430.597 236.157C433.185 237.43 435.178 239.176 436.575 241.395C437.972 243.613 438.773 246.16 438.978 249.036H432.816C432.528 246.078 431.419 243.798 429.488 242.196C427.557 240.594 424.969 239.792 421.723 239.792H421.107C418.231 239.792 415.704 240.45 413.527 241.765C411.35 243.079 409.645 244.99 408.412 247.496C407.221 250.002 406.625 252.98 406.625 256.431C406.625 259.882 407.221 262.861 408.412 265.367C409.645 267.873 411.35 269.783 413.527 271.098C415.704 272.413 418.231 273.07 421.107 273.07H421.723C424.188 273.07 426.324 272.618 428.132 271.714C429.981 270.769 431.378 269.516 432.323 267.955C433.268 266.394 433.74 264.668 433.74 262.779V261.608H421.415V256.123H434.048C435.733 256.123 437.027 256.575 437.931 257.479C438.834 258.383 439.286 259.677 439.286 261.361V278H433.74V273.132C433.247 273.871 432.425 274.672 431.275 275.535C430.166 276.357 428.707 277.076 426.9 277.692C425.092 278.308 423.058 278.616 420.799 278.616ZM448.487 278V234.862H454.65V278H448.487ZM479.378 278.616C475.968 278.616 473.01 278.082 470.504 277.014C467.998 275.905 466.047 274.261 464.65 272.084C463.253 269.907 462.513 267.257 462.431 264.134H468.594C468.594 266.969 469.6 269.167 471.613 270.728C473.626 272.289 476.297 273.07 479.625 273.07H480.241C483.035 273.07 485.212 272.454 486.773 271.221C488.375 269.989 489.177 268.448 489.177 266.599C489.177 264.874 488.622 263.477 487.513 262.409C486.403 261.341 484.698 260.581 482.398 260.129L475.496 258.711C471.963 257.972 469.251 256.616 467.361 254.644C465.513 252.631 464.588 249.94 464.588 246.571C464.588 244.312 465.225 242.257 466.499 240.409C467.813 238.519 469.621 237.019 471.922 235.91C474.263 234.801 476.954 234.246 479.994 234.246C483.158 234.246 485.91 234.801 488.252 235.91C490.635 237.019 492.484 238.601 493.798 240.655C495.154 242.668 495.873 245.051 495.955 247.804H489.793C489.628 245.38 488.663 243.449 486.896 242.011C485.171 240.532 482.973 239.792 480.303 239.792H479.686C477.92 239.792 476.359 240.08 475.003 240.655C473.647 241.23 472.599 242.032 471.86 243.059C471.12 244.086 470.751 245.236 470.751 246.51C470.751 248.112 471.264 249.427 472.291 250.454C473.318 251.481 474.777 252.179 476.667 252.549L483.569 253.905C487.389 254.644 490.306 256.041 492.319 258.095C494.332 260.149 495.339 262.902 495.339 266.353C495.339 268.859 494.661 271.036 493.305 272.885C491.991 274.734 490.121 276.151 487.698 277.137C485.315 278.123 482.542 278.616 479.378 278.616ZM513.798 278V240.409H498.392V234.862H535.367V240.409H519.961V278H513.798ZM541.948 278V234.862H560.435C563.065 234.862 565.406 235.376 567.46 236.403C569.515 237.389 571.117 238.786 572.267 240.594C573.418 242.36 573.993 244.353 573.993 246.571C573.993 248.666 573.561 250.495 572.699 252.056C571.877 253.617 570.85 254.85 569.617 255.753C568.385 256.657 567.193 257.232 566.043 257.479C567.193 257.479 568.056 257.684 568.631 258.095C569.248 258.465 569.72 259.019 570.049 259.759C570.418 260.498 570.87 261.71 571.404 263.395L571.466 263.518L576.15 278H569.679L565.427 265.244C564.975 263.847 564.585 262.861 564.256 262.286C563.968 261.71 563.537 261.32 562.962 261.115C562.428 260.868 561.586 260.745 560.435 260.745H548.11V278H541.948ZM559.511 255.199C561.195 255.199 562.674 254.87 563.948 254.213C565.221 253.514 566.187 252.59 566.844 251.44C567.502 250.248 567.83 248.934 567.83 247.496C567.83 245.195 567.091 243.449 565.612 242.257C564.174 241.025 562.14 240.409 559.511 240.409H548.11V255.199H559.511ZM592.438 278V260.129L577.032 234.862H584.181L595.704 253.905L607.105 234.862H614.007L598.601 260.129V278H592.438Z" fill="#FCFCFC"/>
</svg>
