<svg width="282" height="29" viewBox="0 0 282 29" fill="none" xmlns="http://www.w3.org/2000/svg">
<path d="M0.0195312 0.60185H6.12362C8.24042 0.60185 9.60095 1.4511 9.7549 3.30331H0.0195312V0.60185ZM9.7549 3.30331H13.0398V27.6126H9.7549V3.30331ZM16.6711 0.60185H22.7771V3.30331H13.0398C13.1937 1.4511 14.5466 0.60185 16.6711 0.60185ZM22.7771 8.31812H26.062V13.1792H26.1005C26.9106 10.4393 28.6887 7.85506 31.5484 7.85506C31.7415 7.85125 31.9347 7.86411 32.1257 7.89349V11.2809C29.0351 11.1656 26.7932 12.1686 26.0601 13.5193V27.6126H22.7771V8.31812ZM34.4445 18.2709C34.4445 14.993 36.1765 12.6777 38.9668 11.5211C38.5415 12.7546 38.2702 14.2974 38.1547 16.1881H48.8195C48.8484 14.628 48.6665 13.0711 48.2788 11.5595C51.0595 12.793 52.4893 15.2236 52.2969 18.5802H38.1162C38.1547 20.857 38.3856 23.0167 39.0784 24.7152C35.9128 23.7103 34.4445 21.5122 34.4445 18.2709ZM43.5314 10.7045C41.9734 10.6764 40.425 10.9518 38.9726 11.5153C39.8616 9.04631 41.4069 7.8493 43.7238 7.8493C46.0042 7.8493 47.511 9.08474 48.2846 11.5537C46.7709 10.9636 45.1561 10.675 43.5314 10.7045ZM39.088 24.7094C40.3639 25.1321 41.9476 25.3262 43.8412 25.3262C45.3525 25.3456 46.8597 25.164 48.3231 24.7863C47.511 26.9459 45.8887 28.0641 43.7623 28.0641C41.3626 28.0699 39.8943 26.7595 39.0823 24.7152L39.088 24.7094ZM48.9023 21.2759H52.4181C51.9543 23.1262 50.3321 24.206 48.3231 24.7863C48.6974 23.6554 48.8909 22.4727 48.8965 21.2817L48.9023 21.2759ZM55.3547 18.2651C55.3547 14.9872 57.0866 12.672 59.875 11.5153C59.4497 12.7488 59.1784 14.2917 59.063 16.1823H69.7278C69.7567 14.6222 69.5748 13.0653 69.187 11.5537C71.9678 12.7872 73.3976 15.2178 73.2051 18.5744H59.0187C59.0572 20.8513 59.29 23.0109 59.9809 24.7094C56.8095 23.7103 55.3489 21.5122 55.3489 18.2709L55.3547 18.2651ZM64.4281 10.7045C62.8702 10.6766 61.3217 10.952 59.8693 11.5153C60.7583 9.04631 62.3036 7.8493 64.6205 7.8493C66.9009 7.8493 68.4077 9.08474 69.1813 11.5537C67.6676 10.9636 66.0528 10.675 64.4281 10.7045ZM59.9847 24.7152C61.2606 25.1379 62.8443 25.3319 64.7379 25.3319C66.2492 25.3514 67.7564 25.1698 69.2198 24.792C68.4077 26.9517 66.7854 28.0699 64.6609 28.0699C62.2651 28.0699 60.7968 26.7595 59.9847 24.7152ZM69.799 21.2817H73.3148C72.851 23.132 71.2288 24.2118 69.2198 24.792C69.5967 23.6596 69.7922 22.4749 69.799 21.2817ZM79.8057 21.2413C79.7737 21.6138 79.7608 21.9877 79.7672 22.3615C79.7534 23.2606 79.87 24.1569 80.1136 25.0226C77.7582 24.3674 76.2899 23.0551 76.2456 21.2413H79.8057ZM89.0023 24.0965C89.0023 22.0521 88.0401 20.7783 85.0612 19.66L81.5838 18.3477C78.4144 17.1526 77.1789 16.1112 77.1789 14.259C77.1789 12.7546 78.1046 11.6363 79.9212 11.0196C79.8765 11.2612 79.8508 11.506 79.8442 11.7516C79.8442 13.8344 80.6948 14.6068 83.6313 15.725L86.9143 16.9605C90.0837 18.1556 91.552 19.4679 91.552 21.5122C91.552 23.132 90.5899 24.2022 88.9234 24.8305C88.9686 24.5882 88.995 24.3428 89.0023 24.0965ZM83.9431 7.85506C86.185 7.85506 87.4204 8.97331 87.9612 10.9024C86.9182 10.595 85.6057 10.4393 83.9816 10.4393C82.3202 10.4393 80.968 10.6315 79.925 11.0157C80.1925 9.39793 81.4664 7.85506 83.9431 7.85506ZM80.1174 25.0226C81.43 25.3632 82.7813 25.5318 84.1375 25.5241C86.0291 25.5241 87.6918 25.2935 88.9272 24.8305C88.6193 26.4886 87.151 28.0699 84.4069 28.0699C82.1631 28.0699 80.7332 26.9901 80.1136 25.0226H80.1174ZM87.9573 10.8966C90.4686 11.5537 91.552 12.9025 91.783 14.4473H88.2671C88.3552 13.2548 88.2505 12.0559 87.9573 10.8966ZM100.164 8.01454C100.781 5.77805 102.211 4.27361 104.297 3.65685L101.053 16.6607H111.987L108.702 3.6607C110.788 4.27746 112.218 5.77421 112.837 8.01838L118.206 27.6165H114.733L112.647 19.3545H100.36L98.3123 27.6165H94.835L100.164 8.01454ZM104.726 1.87573C104.998 0.834338 105.459 0.146484 106.504 0.146484C107.549 0.146484 108.011 0.842024 108.281 1.87573L108.706 3.65108C107.267 3.23858 105.74 3.23858 104.301 3.65108L104.726 1.87573ZM122.43 0.60185H125.675V27.6126H122.43V0.60185Z" fill="url(#paint0_linear_2808_33694)"/>
<path d="M136.14 28V24.52H139.62V28H136.14Z" fill="#2F3130"/>
<path d="M144.142 28V7.7H152.842C154.08 7.7 155.182 7.94167 156.148 8.425C157.115 8.889 157.869 9.54633 158.41 10.397C158.952 11.2283 159.222 12.166 159.222 13.21C159.222 14.196 159.019 15.0563 158.613 15.791C158.227 16.5257 157.743 17.1057 157.163 17.531C156.583 17.9563 156.023 18.227 155.481 18.343C156.023 18.343 156.429 18.4397 156.699 18.633C156.989 18.807 157.212 19.068 157.366 19.416C157.54 19.764 157.753 20.3343 158.004 21.127L158.033 21.185L160.237 28H157.192L155.191 21.997C154.979 21.3397 154.795 20.8757 154.64 20.605C154.505 20.3343 154.302 20.1507 154.031 20.054C153.78 19.938 153.384 19.88 152.842 19.88H147.042V28H144.142ZM152.407 17.27C153.2 17.27 153.896 17.1153 154.495 16.806C155.095 16.4773 155.549 16.0423 155.858 15.501C156.168 14.9403 156.322 14.3217 156.322 13.645C156.322 12.5623 155.974 11.7407 155.278 11.18C154.602 10.6 153.645 10.31 152.407 10.31H147.042V17.27H152.407Z" fill="#2F3130"/>
<path d="M163.797 28V7.7H178.587V10.31H166.697V16.255H176.847V18.865H166.697V25.39H178.877V28H163.797Z" fill="#2F3130"/>
<path d="M190.67 28.29C188.775 28.29 187.103 27.8453 185.653 26.956C184.203 26.0667 183.082 24.8293 182.289 23.244C181.496 21.6587 181.1 19.8607 181.1 17.85C181.1 15.82 181.496 14.022 182.289 12.456C183.101 10.8707 184.251 9.63333 185.74 8.744C187.229 7.85467 188.969 7.41 190.96 7.41C192.642 7.41 194.082 7.70967 195.281 8.309C196.499 8.90833 197.437 9.73 198.094 10.774C198.751 11.818 199.128 13.0167 199.225 14.37H196.325C196.19 12.978 195.668 11.905 194.759 11.151C193.85 10.397 192.632 10.02 191.105 10.02H190.815C189.462 10.02 188.273 10.3293 187.248 10.948C186.223 11.5667 185.421 12.4657 184.841 13.645C184.28 14.8243 184 16.226 184 17.85C184 19.474 184.28 20.8757 184.841 22.055C185.421 23.2343 186.223 24.1333 187.248 24.752C188.273 25.3707 189.462 25.68 190.815 25.68H191.105C192.265 25.68 193.27 25.4673 194.121 25.042C194.991 24.5973 195.648 24.0077 196.093 23.273C196.538 22.5383 196.76 21.7263 196.76 20.837V20.286H190.96V17.705H196.905C197.698 17.705 198.307 17.9177 198.732 18.343C199.157 18.7683 199.37 19.3773 199.37 20.17V28H196.76V25.709C196.528 26.057 196.141 26.434 195.6 26.84C195.078 27.2267 194.392 27.565 193.541 27.855C192.69 28.145 191.733 28.29 190.67 28.29Z" fill="#2F3130"/>
<path d="M203.7 28V7.7H206.6V28H203.7Z" fill="#2F3130"/>
<path d="M218.237 28.29C216.632 28.29 215.24 28.0387 214.061 27.536C212.881 27.014 211.963 26.2407 211.306 25.216C210.648 24.1913 210.3 22.9443 210.262 21.475H213.162C213.162 22.809 213.635 23.8433 214.583 24.578C215.53 25.3127 216.787 25.68 218.353 25.68H218.643C219.957 25.68 220.982 25.39 221.717 24.81C222.471 24.23 222.848 23.505 222.848 22.635C222.848 21.823 222.587 21.1657 222.065 20.663C221.543 20.1603 220.74 19.8027 219.658 19.59L216.41 18.923C214.747 18.575 213.471 17.937 212.582 17.009C211.712 16.0617 211.277 14.7953 211.277 13.21C211.277 12.1467 211.576 11.18 212.176 10.31C212.794 9.42067 213.645 8.715 214.728 8.193C215.83 7.671 217.096 7.41 218.527 7.41C220.015 7.41 221.311 7.671 222.413 8.193C223.534 8.715 224.404 9.45933 225.023 10.426C225.661 11.3733 225.999 12.4947 226.038 13.79H223.138C223.06 12.6493 222.606 11.7407 221.775 11.064C220.963 10.368 219.928 10.02 218.672 10.02H218.382C217.55 10.02 216.816 10.1553 216.178 10.426C215.54 10.6967 215.047 11.0737 214.699 11.557C214.351 12.0403 214.177 12.5817 214.177 13.181C214.177 13.935 214.418 14.5537 214.902 15.037C215.385 15.5203 216.071 15.849 216.961 16.023L220.209 16.661C222.007 17.009 223.379 17.6663 224.327 18.633C225.274 19.5997 225.748 20.895 225.748 22.519C225.748 23.6983 225.429 24.723 224.791 25.593C224.172 26.463 223.292 27.13 222.152 27.594C221.03 28.058 219.725 28.29 218.237 28.29Z" fill="#2F3130"/>
<path d="M234.434 28V10.31H227.184V7.7H244.584V10.31H237.334V28H234.434Z" fill="#2F3130"/>
<path d="M247.681 28V7.7H256.381C257.619 7.7 258.721 7.94167 259.687 8.425C260.654 8.889 261.408 9.54633 261.949 10.397C262.491 11.2283 262.761 12.166 262.761 13.21C262.761 14.196 262.558 15.0563 262.152 15.791C261.766 16.5257 261.282 17.1057 260.702 17.531C260.122 17.9563 259.562 18.227 259.02 18.343C259.562 18.343 259.968 18.4397 260.238 18.633C260.528 18.807 260.751 19.068 260.905 19.416C261.079 19.764 261.292 20.3343 261.543 21.127L261.572 21.185L263.776 28H260.731L258.73 21.997C258.518 21.3397 258.334 20.8757 258.179 20.605C258.044 20.3343 257.841 20.1507 257.57 20.054C257.319 19.938 256.923 19.88 256.381 19.88H250.581V28H247.681ZM255.946 17.27C256.739 17.27 257.435 17.1153 258.034 16.806C258.634 16.4773 259.088 16.0423 259.397 15.501C259.707 14.9403 259.861 14.3217 259.861 13.645C259.861 12.5623 259.513 11.7407 258.817 11.18C258.141 10.6 257.184 10.31 255.946 10.31H250.581V17.27H255.946Z" fill="#2F3130"/>
<path d="M271.442 28V19.59L264.192 7.7H267.556L272.979 16.661L278.344 7.7H281.592L274.342 19.59V28H271.442Z" fill="#2F3130"/>
<defs>
<linearGradient id="paint0_linear_2808_33694" x1="-4.60329" y1="5.66998" x2="2.32952" y2="62.4111" gradientUnits="userSpaceOnUse">
<stop offset="0.0600381" stop-color="#4F46E5"/>
<stop offset="0.746571" stop-color="#1EB792"/>
</linearGradient>
</defs>
</svg>
